<svg width="40" height="40" viewBox="0 0 40 40" fill="none" xmlns="http://www.w3.org/2000/svg">
<path d="M21.5 10C21.5 9.17156 20.8284 8.5 20 8.5C19.1716 8.5 18.5 9.17156 18.5 10V16C18.5 16.8284 19.1716 17.5 20 17.5C20.8284 17.5 21.5 16.8284 21.5 16V10Z" fill="white"/>
<path fill-rule="evenodd" clip-rule="evenodd" d="M4 16C4 7.16344 11.1634 0 20 0C28.8366 0 36 7.16344 36 16V24C36 32.8366 28.8366 40 20 40C11.1634 40 4 32.8366 4 24V16ZM33 16V24C33 31.1798 27.1798 37 20 37C12.8203 37 7 31.1798 7 24V16C7 8.82031 12.8203 3 20 3C27.1798 3 33 8.82031 33 16Z" fill="white"/>
</svg>
